{
	"asset":{
		"generator":"Khronos glTF Blender I/O v4.0.44",
		"version":"2.0"
	},
	"extensionsUsed":[
		"KHR_materials_specular",
		"KHR_materials_ior"
	],
	"scene":0,
	"scenes":[
		{
			"name":"Scene",
			"nodes":[
				5
			]
		}
	],
	"nodes":[
		{
			"mesh":0,
			"name":"Body"
		},
		{
			"mesh":1,
			"name":"Body_fur"
		},
		{
			"mesh":2,
			"name":"eyes",
			"scale":[
				0.038074567914009094,
				0.038074567914009094,
				0.038074567914009094
			],
			"translation":[
				0,
				0,
				1.1133760213851929
			]
		},
		{
			"mesh":3,
			"name":"Teeth",
			"scale":[
				0.038074567914009094,
				0.038074567914009094,
				0.038074567914009094
			],
			"translation":[
				0,
				0,
				1.1133774518966675
			]
		},
		{
			"mesh":4,
			"name":"Top_Hair",
			"scale":[
				0.038074567914009094,
				0.038074567914009094,
				0.038074567914009094
			],
			"translation":[
				0,
				0,
				1.113377332687378
			]
		},
		{
			"children":[
				0,
				1,
				2,
				3,
				4
			],
			"name":"Character",
			"rotation":[
				0.7071068286895752,
				0,
				0,
				0.7071068286895752
			],
			"scale":[
				1.1714833974838257,
				1.1714833974838257,
				1.1714833974838257
			],
			"translation":[
				0,
				1.3069909811019897,
				0
			]
		}
	],
	"materials":[
		{
			"doubleSided":true,
			"extensions":{
				"KHR_materials_specular":{
					"specularColorFactor":[
						1.1636364459991455,
						1.1636364459991455,
						1.1636364459991455
					]
				},
				"KHR_materials_ior":{
					"ior":1.4500000476837158
				}
			},
			"name":"lambert2",
			"pbrMetallicRoughness":{
				"metallicFactor":0
			}
		},
		{
			"alphaCutoff":0,
			"alphaMode":"MASK",
			"doubleSided":true,
			"name":"Material",
			"pbrMetallicRoughness":{
				"metallicFactor":0,
				"roughnessFactor":0.5
			}
		}
	],
	"meshes":[
		{
			"name":"Mesh",
			"primitives":[
				{
					"attributes":{
						"POSITION":0,
						"NORMAL":1,
						"TEXCOORD_0":2
					},
					"indices":3,
					"material":0
				}
			]
		},
		{
			"name":"Mesh.002",
			"primitives":[
				{
					"attributes":{
						"POSITION":4,
						"NORMAL":5,
						"TEXCOORD_0":6
					},
					"indices":7,
					"material":1
				}
			]
		},
		{
			"name":"Mesh.004",
			"primitives":[
				{
					"attributes":{
						"POSITION":8,
						"NORMAL":9,
						"TEXCOORD_0":10
					},
					"indices":11,
					"material":0
				}
			]
		},
		{
			"name":"Mesh.003",
			"primitives":[
				{
					"attributes":{
						"POSITION":12,
						"NORMAL":13,
						"TEXCOORD_0":14
					},
					"indices":15,
					"material":0
				}
			]
		},
		{
			"name":"Mesh.001",
			"primitives":[
				{
					"attributes":{
						"POSITION":16,
						"NORMAL":17,
						"TEXCOORD_0":18
					},
					"indices":19,
					"material":0
				}
			]
		}
	],
	"accessors":[
		{
			"bufferView":0,
			"componentType":5126,
			"count":10393,
			"max":[
				0.9759484529495239,
				0.728345513343811,
				1.1202068328857422
			],
			"min":[
				-0.9759484529495239,
				-0.622484564781189,
				-0.897163987159729
			],
			"type":"VEC3"
		},
		{
			"bufferView":1,
			"componentType":5126,
			"count":10393,
			"type":"VEC3"
		},
		{
			"bufferView":2,
			"componentType":5126,
			"count":10393,
			"type":"VEC2"
		},
		{
			"bufferView":3,
			"componentType":5123,
			"count":58284,
			"type":"SCALAR"
		},
		{
			"bufferView":4,
			"componentType":5126,
			"count":75108,
			"max":[
				0.8985357284545898,
				0.6057413220405579,
				1.0987628698349
			],
			"min":[
				-0.8940014243125916,
				-0.6818740367889404,
				-0.94792640209198
			],
			"type":"VEC3"
		},
		{
			"bufferView":5,
			"componentType":5126,
			"count":75108,
			"type":"VEC3"
		},
		{
			"bufferView":6,
			"componentType":5126,
			"count":75108,
			"type":"VEC2"
		},
		{
			"bufferView":7,
			"componentType":5125,
			"count":112662,
			"type":"SCALAR"
		},
		{
			"bufferView":8,
			"componentType":5126,
			"count":804,
			"max":[
				12.947403907775879,
				16.20322036743164,
				-33.94300842285156
			],
			"min":[
				-12.949935913085938,
				3.043443202972412,
				-47.10279083251953
			],
			"type":"VEC3"
		},
		{
			"bufferView":9,
			"componentType":5126,
			"count":804,
			"type":"VEC3"
		},
		{
			"bufferView":10,
			"componentType":5126,
			"count":804,
			"type":"VEC2"
		},
		{
			"bufferView":11,
			"componentType":5123,
			"count":4560,
			"type":"SCALAR"
		},
		{
			"bufferView":12,
			"componentType":5126,
			"count":2848,
			"max":[
				15.499614715576172,
				18.221302032470703,
				-26.550840377807617
			],
			"min":[
				-15.499614715576172,
				9.433008193969727,
				-33.91988754272461
			],
			"type":"VEC3"
		},
		{
			"bufferView":13,
			"componentType":5126,
			"count":2848,
			"type":"VEC3"
		},
		{
			"bufferView":14,
			"componentType":5126,
			"count":2848,
			"type":"VEC2"
		},
		{
			"bufferView":15,
			"componentType":5123,
			"count":15144,
			"type":"SCALAR"
		},
		{
			"bufferView":16,
			"componentType":5126,
			"count":1224,
			"max":[
				27.236343383789062,
				5.163137912750244,
				-36.96699905395508
			],
			"min":[
				-27.236343383789062,
				-1.2477785348892212,
				-62.568572998046875
			],
			"type":"VEC3"
		},
		{
			"bufferView":17,
			"componentType":5126,
			"count":1224,
			"type":"VEC3"
		},
		{
			"bufferView":18,
			"componentType":5126,
			"count":1224,
			"type":"VEC2"
		},
		{
			"bufferView":19,
			"componentType":5123,
			"count":6264,
			"type":"SCALAR"
		}
	],
	"bufferViews":[
		{
			"buffer":0,
			"byteLength":124716,
			"byteOffset":0,
			"target":34962
		},
		{
			"buffer":0,
			"byteLength":124716,
			"byteOffset":124716,
			"target":34962
		},
		{
			"buffer":0,
			"byteLength":83144,
			"byteOffset":249432,
			"target":34962
		},
		{
			"buffer":0,
			"byteLength":116568,
			"byteOffset":332576,
			"target":34963
		},
		{
			"buffer":0,
			"byteLength":901296,
			"byteOffset":449144,
			"target":34962
		},
		{
			"buffer":0,
			"byteLength":901296,
			"byteOffset":1350440,
			"target":34962
		},
		{
			"buffer":0,
			"byteLength":600864,
			"byteOffset":2251736,
			"target":34962
		},
		{
			"buffer":0,
			"byteLength":450648,
			"byteOffset":2852600,
			"target":34963
		},
		{
			"buffer":0,
			"byteLength":9648,
			"byteOffset":3303248,
			"target":34962
		},
		{
			"buffer":0,
			"byteLength":9648,
			"byteOffset":3312896,
			"target":34962
		},
		{
			"buffer":0,
			"byteLength":6432,
			"byteOffset":3322544,
			"target":34962
		},
		{
			"buffer":0,
			"byteLength":9120,
			"byteOffset":3328976,
			"target":34963
		},
		{
			"buffer":0,
			"byteLength":34176,
			"byteOffset":3338096,
			"target":34962
		},
		{
			"buffer":0,
			"byteLength":34176,
			"byteOffset":3372272,
			"target":34962
		},
		{
			"buffer":0,
			"byteLength":22784,
			"byteOffset":3406448,
			"target":34962
		},
		{
			"buffer":0,
			"byteLength":30288,
			"byteOffset":3429232,
			"target":34963
		},
		{
			"buffer":0,
			"byteLength":14688,
			"byteOffset":3459520,
			"target":34962
		},
		{
			"buffer":0,
			"byteLength":14688,
			"byteOffset":3474208,
			"target":34962
		},
		{
			"buffer":0,
			"byteLength":9792,
			"byteOffset":3488896,
			"target":34962
		},
		{
			"buffer":0,
			"byteLength":12528,
			"byteOffset":3498688,
			"target":34963
		}
	],
	"buffers":[
		{
			"byteLength":3511216,
			"uri":"monster.bin"
		}
	]
}
