{
	"asset":{
		"generator":"Khronos glTF Blender I/O v4.0.44",
		"version":"2.0"
	},
	"extensionsUsed":[
		"KHR_materials_specular",
		"KHR_materials_ior"
	],
	"scene":0,
	"scenes":[
		{
			"name":"Scene",
			"nodes":[
				14
			]
		}
	],
	"nodes":[
		{
			"mesh":0,
			"name":"beard_geo"
		},
		{
			"mesh":1,
			"name":"Body_geo"
		},
		{
			"mesh":2,
			"name":"Bowtie_geo"
		},
		{
			"mesh":3,
			"name":"Coat_geo"
		},
		{
			"mesh":4,
			"name":"Eye_geo"
		},
		{
			"mesh":5,
			"name":"Eyebrow_geo"
		},
		{
			"mesh":6,
			"name":"Hair_geo"
		},
		{
			"mesh":7,
			"name":"Pant_geo"
		},
		{
			"mesh":8,
			"name":"Shirt_geo"
		},
		{
			"mesh":9,
			"name":"Shoes_geo"
		},
		{
			"mesh":10,
			"name":"Specs_frame_geo"
		},
		{
			"mesh":11,
			"name":"Specs_glass_geo"
		},
		{
			"mesh":12,
			"name":"Teeth_geo"
		},
		{
			"mesh":13,
			"name":"Waistcoat_geo"
		},
		{
			"children":[
				0,
				1,
				2,
				3,
				4,
				5,
				6,
				7,
				8,
				9,
				10,
				11,
				12,
				13
			],
			"name":"Professor_GRP",
			"rotation":[
				0.7071068286895752,
				0,
				0,
				0.7071068286895752
			],
			"scale":[
				0.009999999776482582,
				0.009999999776482582,
				0.009999999776482582
			]
		}
	],
	"materials":[
		{
			"doubleSided":true,
			"extensions":{
				"KHR_materials_specular":{
					"specularColorFactor":[
						2.0,
						2.0,
						2.0
					]
				},
				"KHR_materials_ior":{
					"ior":1.4500000476837158
				}
			},
			"name":"Hair",
			"normalTexture":{
				"index":0
			},
			"pbrMetallicRoughness":{
				"baseColorTexture":{
					"index":1
				},
				"metallicFactor":0,
				"roughnessFactor":0.5516007542610168
			}
		},
		{
			"doubleSided":true,
			"extensions":{
				"KHR_materials_specular":{
					"specularColorFactor":[
						2.0,
						2.0,
						2.0
					]
				},
				"KHR_materials_ior":{
					"ior":1.4500000476837158
				}
			},
			"name":"Body",
			"normalTexture":{
				"index":2
			},
			"pbrMetallicRoughness":{
				"baseColorTexture":{
					"index":3
				},
				"metallicFactor":0,
				"roughnessFactor":0.4578580856323242
			}
		},
		{
			"doubleSided":true,
			"extensions":{
				"KHR_materials_specular":{
					"specularColorFactor":[
						2.0,
						2.0,
						2.0
					]
				},
				"KHR_materials_ior":{
					"ior":1.4500000476837158
				}
			},
			"name":"Coat",
			"normalTexture":{
				"index":4
			},
			"pbrMetallicRoughness":{
				"baseColorTexture":{
					"index":5
				},
				"metallicFactor":0,
				"roughnessFactor":0.7133325934410095
			}
		},
		{
			"doubleSided":true,
			"extensions":{
				"KHR_materials_specular":{
					"specularFactor":0.9672727584838867
				},
				"KHR_materials_ior":{
					"ior":1.4500000476837158
				}
			},
			"name":"Eyes",
			"pbrMetallicRoughness":{
				"baseColorTexture":{
					"index":6
				},
				"metallicFactor":0.5,
				"roughnessFactor":0
			}
		},
		{
			"doubleSided":true,
			"extensions":{
				"KHR_materials_specular":{
					"specularColorFactor":[
						2.0,
						2.0,
						2.0
					]
				},
				"KHR_materials_ior":{
					"ior":1.4500000476837158
				}
			},
			"name":"PAntandshirt",
			"normalTexture":{
				"index":7
			},
			"pbrMetallicRoughness":{
				"baseColorTexture":{
					"index":8
				},
				"metallicFactor":0,
				"roughnessFactor":0.7709090709686279
			}
		},
		{
			"doubleSided":true,
			"extensions":{
				"KHR_materials_specular":{
					"specularColorFactor":[
						1.1854546070098877,
						1.1854546070098877,
						1.1854546070098877
					]
				},
				"KHR_materials_ior":{
					"ior":1.4500000476837158
				}
			},
			"name":"Shoe",
			"pbrMetallicRoughness":{
				"baseColorTexture":{
					"index":9
				},
				"metallicFactor":0,
				"roughnessFactor":0.14909091591835022
			}
		},
		{
			"alphaMode":"BLEND",
			"doubleSided":true,
			"extensions":{
				"KHR_materials_specular":{
					"specularColorFactor":[
						2.0,
						2.0,
						2.0
					]
				},
				"KHR_materials_ior":{
					"ior":1.4500000476837158
				}
			},
			"name":"Specs",
			"pbrMetallicRoughness":{
				"baseColorTexture":{
					"index":10
				},
				"metallicFactor":0.5,
				"roughnessFactor":0.10876721143722534
			}
		},
		{
			"doubleSided":true,
			"extensions":{
				"KHR_materials_specular":{
					"specularColorFactor":[
						2.0,
						2.0,
						2.0
					]
				},
				"KHR_materials_ior":{
					"ior":1.4500000476837158
				}
			},
			"name":"Teeth",
			"pbrMetallicRoughness":{
				"baseColorFactor":[
					0.5,
					0.5,
					0.5,
					1
				],
				"metallicFactor":0.5,
				"roughnessFactor":0.7487671971321106
			}
		}
	],
	"meshes":[
		{
			"name":"Mesh.005",
			"primitives":[
				{
					"attributes":{
						"POSITION":0,
						"NORMAL":1,
						"TEXCOORD_0":2
					},
					"indices":3,
					"material":0
				}
			]
		},
		{
			"name":"Mesh",
			"primitives":[
				{
					"attributes":{
						"POSITION":4,
						"NORMAL":5,
						"TEXCOORD_0":6
					},
					"indices":7,
					"material":1
				}
			]
		},
		{
			"name":"Mesh.008",
			"primitives":[
				{
					"attributes":{
						"POSITION":8,
						"NORMAL":9,
						"TEXCOORD_0":10
					},
					"indices":11,
					"material":2
				}
			]
		},
		{
			"name":"Mesh.009",
			"primitives":[
				{
					"attributes":{
						"POSITION":12,
						"NORMAL":13,
						"TEXCOORD_0":14
					},
					"indices":15,
					"material":2
				}
			]
		},
		{
			"name":"Mesh.006",
			"primitives":[
				{
					"attributes":{
						"POSITION":16,
						"NORMAL":17,
						"TEXCOORD_0":18
					},
					"indices":19,
					"material":3
				}
			]
		},
		{
			"name":"Mesh.004",
			"primitives":[
				{
					"attributes":{
						"POSITION":20,
						"NORMAL":21,
						"TEXCOORD_0":22
					},
					"indices":23,
					"material":0
				}
			]
		},
		{
			"name":"Mesh.003",
			"primitives":[
				{
					"attributes":{
						"POSITION":24,
						"NORMAL":25,
						"TEXCOORD_0":26
					},
					"indices":27,
					"material":0
				}
			]
		},
		{
			"name":"Mesh.001",
			"primitives":[
				{
					"attributes":{
						"POSITION":28,
						"NORMAL":29,
						"TEXCOORD_0":30
					},
					"indices":31,
					"material":4
				}
			]
		},
		{
			"name":"Mesh.002",
			"primitives":[
				{
					"attributes":{
						"POSITION":32,
						"NORMAL":33,
						"TEXCOORD_0":34
					},
					"indices":35,
					"material":4
				}
			]
		},
		{
			"name":"Mesh.007",
			"primitives":[
				{
					"attributes":{
						"POSITION":36,
						"NORMAL":37,
						"TEXCOORD_0":38
					},
					"indices":39,
					"material":5
				}
			]
		},
		{
			"name":"Mesh.011",
			"primitives":[
				{
					"attributes":{
						"POSITION":40,
						"NORMAL":41,
						"TEXCOORD_0":42
					},
					"indices":43,
					"material":6
				}
			]
		},
		{
			"name":"Mesh.012",
			"primitives":[
				{
					"attributes":{
						"POSITION":44,
						"NORMAL":45,
						"TEXCOORD_0":46
					},
					"indices":47,
					"material":6
				}
			]
		},
		{
			"name":"Mesh.013",
			"primitives":[
				{
					"attributes":{
						"POSITION":48,
						"NORMAL":49
					},
					"indices":50,
					"material":7
				}
			]
		},
		{
			"name":"Mesh.010",
			"primitives":[
				{
					"attributes":{
						"POSITION":51,
						"NORMAL":52,
						"TEXCOORD_0":53
					},
					"indices":54,
					"material":2
				}
			]
		}
	],
	"textures":[
		{
			"sampler":0,
			"source":0
		},
		{
			"sampler":0,
			"source":1
		},
		{
			"sampler":0,
			"source":2
		},
		{
			"sampler":0,
			"source":3
		},
		{
			"sampler":0,
			"source":4
		},
		{
			"sampler":0,
			"source":5
		},
		{
			"sampler":0,
			"source":6
		},
		{
			"sampler":0,
			"source":7
		},
		{
			"sampler":0,
			"source":8
		},
		{
			"sampler":0,
			"source":9
		},
		{
			"sampler":0,
			"source":10
		}
	],
	"images":[
		{
			"mimeType":"image/png",
			"name":"Professor Model_Hair_Normal",
			"uri":"Professor%20Model_Hair_Normal.png"
		},
		{
			"mimeType":"image/png",
			"name":"Professor Model_Hair_BaseColor",
			"uri":"Professor%20Model_Hair_BaseColor.png"
		},
		{
			"mimeType":"image/png",
			"name":"Professor Model_Body_Normal",
			"uri":"Professor%20Model_Body_Normal.png"
		},
		{
			"mimeType":"image/png",
			"name":"Professor Model_Body_BaseColor",
			"uri":"Professor%20Model_Body_BaseColor.png"
		},
		{
			"mimeType":"image/png",
			"name":"Professor Model_Coat_Normal",
			"uri":"Professor%20Model_Coat_Normal.png"
		},
		{
			"mimeType":"image/png",
			"name":"Professor Model_Coat_BaseColor",
			"uri":"Professor%20Model_Coat_BaseColor.png"
		},
		{
			"mimeType":"image/png",
			"name":"Professor Model_Eye_BaseColor",
			"uri":"Professor%20Model_Eye_BaseColor.png"
		},
		{
			"mimeType":"image/png",
			"name":"Professor Model_Pantandshirt_Normal",
			"uri":"Professor%20Model_Pantandshirt_Normal.png"
		},
		{
			"mimeType":"image/png",
			"name":"Professor Model_Pantandshirt_BaseColor",
			"uri":"Professor%20Model_Pantandshirt_BaseColor.png"
		},
		{
			"mimeType":"image/png",
			"name":"Professor Model_Shoe_BaseColor",
			"uri":"Professor%20Model_Shoe_BaseColor.png"
		},
		{
			"mimeType":"image/png",
			"name":"Professor Model_Specs_BaseColor",
			"uri":"Professor%20Model_Specs_BaseColor.png"
		}
	],
	"accessors":[
		{
			"bufferView":0,
			"componentType":5126,
			"count":4816,
			"max":[
				5.1049323081970215,
				11.003520011901855,
				-108.36766815185547
			],
			"min":[
				-5.1049323081970215,
				4.85391902923584,
				-121.1290054321289
			],
			"type":"VEC3"
		},
		{
			"bufferView":1,
			"componentType":5126,
			"count":4816,
			"type":"VEC3"
		},
		{
			"bufferView":2,
			"componentType":5126,
			"count":4816,
			"type":"VEC2"
		},
		{
			"bufferView":3,
			"componentType":5123,
			"count":27120,
			"type":"SCALAR"
		},
		{
			"bufferView":4,
			"componentType":5126,
			"count":8816,
			"max":[
				49.20356369018555,
				11.975735664367676,
				-1.0981101989746094
			],
			"min":[
				-49.2035026550293,
				-11.019566535949707,
				-137.44146728515625
			],
			"type":"VEC3"
		},
		{
			"bufferView":5,
			"componentType":5126,
			"count":8816,
			"type":"VEC3"
		},
		{
			"bufferView":6,
			"componentType":5126,
			"count":8816,
			"type":"VEC2"
		},
		{
			"bufferView":7,
			"componentType":5123,
			"count":47412,
			"type":"SCALAR"
		},
		{
			"bufferView":8,
			"componentType":5126,
			"count":731,
			"max":[
				5.225479602813721,
				3.3097331523895264,
				-104.8948745727539
			],
			"min":[
				-5.225479602813721,
				0.13670213520526886,
				-109.91803741455078
			],
			"type":"VEC3"
		},
		{
			"bufferView":9,
			"componentType":5126,
			"count":731,
			"type":"VEC3"
		},
		{
			"bufferView":10,
			"componentType":5126,
			"count":731,
			"type":"VEC2"
		},
		{
			"bufferView":11,
			"componentType":5123,
			"count":3990,
			"type":"SCALAR"
		},
		{
			"bufferView":12,
			"componentType":5126,
			"count":1513,
			"max":[
				41.05633544921875,
				9.35813045501709,
				-40.426063537597656
			],
			"min":[
				-40.90212631225586,
				-12.686219215393066,
				-113.56255340576172
			],
			"type":"VEC3"
		},
		{
			"bufferView":13,
			"componentType":5126,
			"count":1513,
			"type":"VEC3"
		},
		{
			"bufferView":14,
			"componentType":5126,
			"count":1513,
			"type":"VEC2"
		},
		{
			"bufferView":15,
			"componentType":5123,
			"count":7758,
			"type":"SCALAR"
		},
		{
			"bufferView":16,
			"componentType":5126,
			"count":1188,
			"max":[
				5.078048229217529,
				8.07186222076416,
				-124.3611831665039
			],
			"min":[
				-5.078048229217529,
				4.9459662437438965,
				-127.80805206298828
			],
			"type":"VEC3"
		},
		{
			"bufferView":17,
			"componentType":5126,
			"count":1188,
			"type":"VEC3"
		},
		{
			"bufferView":18,
			"componentType":5126,
			"count":1188,
			"type":"VEC2"
		},
		{
			"bufferView":19,
			"componentType":5123,
			"count":6720,
			"type":"SCALAR"
		},
		{
			"bufferView":20,
			"componentType":5126,
			"count":1049,
			"max":[
				5.6966962814331055,
				10.485270500183105,
				-127.71561431884766
			],
			"min":[
				-5.6966962814331055,
				7.6330718994140625,
				-129.02554321289062
			],
			"type":"VEC3"
		},
		{
			"bufferView":21,
			"componentType":5126,
			"count":1049,
			"type":"VEC3"
		},
		{
			"bufferView":22,
			"componentType":5126,
			"count":1049,
			"type":"VEC2"
		},
		{
			"bufferView":23,
			"componentType":5123,
			"count":5928,
			"type":"SCALAR"
		},
		{
			"bufferView":24,
			"componentType":5126,
			"count":7375,
			"max":[
				9.558979988098145,
				7.961310386657715,
				-115.75301361083984
			],
			"min":[
				-9.560247421264648,
				-11.459698677062988,
				-139.98550415039062
			],
			"type":"VEC3"
		},
		{
			"bufferView":25,
			"componentType":5126,
			"count":7375,
			"type":"VEC3"
		},
		{
			"bufferView":26,
			"componentType":5126,
			"count":7375,
			"type":"VEC2"
		},
		{
			"bufferView":27,
			"componentType":5123,
			"count":43302,
			"type":"SCALAR"
		},
		{
			"bufferView":28,
			"componentType":5126,
			"count":739,
			"max":[
				19.30414581298828,
				9.626797676086426,
				-5.746379852294922
			],
			"min":[
				-19.30414581298828,
				-9.477298736572266,
				-74.67577362060547
			],
			"type":"VEC3"
		},
		{
			"bufferView":29,
			"componentType":5126,
			"count":739,
			"type":"VEC3"
		},
		{
			"bufferView":30,
			"componentType":5126,
			"count":739,
			"type":"VEC2"
		},
		{
			"bufferView":31,
			"componentType":5123,
			"count":3648,
			"type":"SCALAR"
		},
		{
			"bufferView":32,
			"componentType":5126,
			"count":596,
			"max":[
				13.166914939880371,
				10.03439712524414,
				-72.24971771240234
			],
			"min":[
				-13.166914939880371,
				-10.896576881408691,
				-113.69231414794922
			],
			"type":"VEC3"
		},
		{
			"bufferView":33,
			"componentType":5126,
			"count":596,
			"type":"VEC3"
		},
		{
			"bufferView":34,
			"componentType":5126,
			"count":596,
			"type":"VEC2"
		},
		{
			"bufferView":35,
			"componentType":5123,
			"count":3186,
			"type":"SCALAR"
		},
		{
			"bufferView":36,
			"componentType":5126,
			"count":22060,
			"max":[
				18.633174896240234,
				10.548799514770508,
				0.07096099853515625
			],
			"min":[
				-18.633174896240234,
				-5.762948036193848,
				-7.043964385986328
			],
			"type":"VEC3"
		},
		{
			"bufferView":37,
			"componentType":5126,
			"count":22060,
			"type":"VEC3"
		},
		{
			"bufferView":38,
			"componentType":5126,
			"count":22060,
			"type":"VEC2"
		},
		{
			"bufferView":39,
			"componentType":5123,
			"count":116832,
			"type":"SCALAR"
		},
		{
			"bufferView":40,
			"componentType":5126,
			"count":2282,
			"max":[
				8.39097785949707,
				10.446064949035645,
				-122.03842163085938
			],
			"min":[
				-8.389925003051758,
				-6.221719741821289,
				-127.53231811523438
			],
			"type":"VEC3"
		},
		{
			"bufferView":41,
			"componentType":5126,
			"count":2282,
			"type":"VEC3"
		},
		{
			"bufferView":42,
			"componentType":5126,
			"count":2282,
			"type":"VEC2"
		},
		{
			"bufferView":43,
			"componentType":5123,
			"count":11712,
			"type":"SCALAR"
		},
		{
			"bufferView":44,
			"componentType":5126,
			"count":42,
			"max":[
				5.816333293914795,
				10.250792503356934,
				-122.2941665649414
			],
			"min":[
				-5.815120697021484,
				10.250792503356934,
				-127.28070831298828
			],
			"type":"VEC3"
		},
		{
			"bufferView":45,
			"componentType":5126,
			"count":42,
			"type":"VEC3"
		},
		{
			"bufferView":46,
			"componentType":5126,
			"count":42,
			"type":"VEC2"
		},
		{
			"bufferView":47,
			"componentType":5123,
			"count":120,
			"type":"SCALAR"
		},
		{
			"bufferView":48,
			"componentType":5126,
			"count":1258,
			"max":[
				2.817849636077881,
				9.261640548706055,
				-117.83006286621094
			],
			"min":[
				-2.8178226947784424,
				3.551105260848999,
				-120.52239990234375
			],
			"type":"VEC3"
		},
		{
			"bufferView":49,
			"componentType":5126,
			"count":1258,
			"type":"VEC3"
		},
		{
			"bufferView":50,
			"componentType":5123,
			"count":6480,
			"type":"SCALAR"
		},
		{
			"bufferView":51,
			"componentType":5126,
			"count":521,
			"max":[
				14.6517915725708,
				10.256787300109863,
				-68.21573638916016
			],
			"min":[
				-14.6517915725708,
				-11.495125770568848,
				-109.17940521240234
			],
			"type":"VEC3"
		},
		{
			"bufferView":52,
			"componentType":5126,
			"count":521,
			"type":"VEC3"
		},
		{
			"bufferView":53,
			"componentType":5126,
			"count":521,
			"type":"VEC2"
		},
		{
			"bufferView":54,
			"componentType":5123,
			"count":2736,
			"type":"SCALAR"
		}
	],
	"bufferViews":[
		{
			"buffer":0,
			"byteLength":57792,
			"byteOffset":0,
			"target":34962
		},
		{
			"buffer":0,
			"byteLength":57792,
			"byteOffset":57792,
			"target":34962
		},
		{
			"buffer":0,
			"byteLength":38528,
			"byteOffset":115584,
			"target":34962
		},
		{
			"buffer":0,
			"byteLength":54240,
			"byteOffset":154112,
			"target":34963
		},
		{
			"buffer":0,
			"byteLength":105792,
			"byteOffset":208352,
			"target":34962
		},
		{
			"buffer":0,
			"byteLength":105792,
			"byteOffset":314144,
			"target":34962
		},
		{
			"buffer":0,
			"byteLength":70528,
			"byteOffset":419936,
			"target":34962
		},
		{
			"buffer":0,
			"byteLength":94824,
			"byteOffset":490464,
			"target":34963
		},
		{
			"buffer":0,
			"byteLength":8772,
			"byteOffset":585288,
			"target":34962
		},
		{
			"buffer":0,
			"byteLength":8772,
			"byteOffset":594060,
			"target":34962
		},
		{
			"buffer":0,
			"byteLength":5848,
			"byteOffset":602832,
			"target":34962
		},
		{
			"buffer":0,
			"byteLength":7980,
			"byteOffset":608680,
			"target":34963
		},
		{
			"buffer":0,
			"byteLength":18156,
			"byteOffset":616660,
			"target":34962
		},
		{
			"buffer":0,
			"byteLength":18156,
			"byteOffset":634816,
			"target":34962
		},
		{
			"buffer":0,
			"byteLength":12104,
			"byteOffset":652972,
			"target":34962
		},
		{
			"buffer":0,
			"byteLength":15516,
			"byteOffset":665076,
			"target":34963
		},
		{
			"buffer":0,
			"byteLength":14256,
			"byteOffset":680592,
			"target":34962
		},
		{
			"buffer":0,
			"byteLength":14256,
			"byteOffset":694848,
			"target":34962
		},
		{
			"buffer":0,
			"byteLength":9504,
			"byteOffset":709104,
			"target":34962
		},
		{
			"buffer":0,
			"byteLength":13440,
			"byteOffset":718608,
			"target":34963
		},
		{
			"buffer":0,
			"byteLength":12588,
			"byteOffset":732048,
			"target":34962
		},
		{
			"buffer":0,
			"byteLength":12588,
			"byteOffset":744636,
			"target":34962
		},
		{
			"buffer":0,
			"byteLength":8392,
			"byteOffset":757224,
			"target":34962
		},
		{
			"buffer":0,
			"byteLength":11856,
			"byteOffset":765616,
			"target":34963
		},
		{
			"buffer":0,
			"byteLength":88500,
			"byteOffset":777472,
			"target":34962
		},
		{
			"buffer":0,
			"byteLength":88500,
			"byteOffset":865972,
			"target":34962
		},
		{
			"buffer":0,
			"byteLength":59000,
			"byteOffset":954472,
			"target":34962
		},
		{
			"buffer":0,
			"byteLength":86604,
			"byteOffset":1013472,
			"target":34963
		},
		{
			"buffer":0,
			"byteLength":8868,
			"byteOffset":1100076,
			"target":34962
		},
		{
			"buffer":0,
			"byteLength":8868,
			"byteOffset":1108944,
			"target":34962
		},
		{
			"buffer":0,
			"byteLength":5912,
			"byteOffset":1117812,
			"target":34962
		},
		{
			"buffer":0,
			"byteLength":7296,
			"byteOffset":1123724,
			"target":34963
		},
		{
			"buffer":0,
			"byteLength":7152,
			"byteOffset":1131020,
			"target":34962
		},
		{
			"buffer":0,
			"byteLength":7152,
			"byteOffset":1138172,
			"target":34962
		},
		{
			"buffer":0,
			"byteLength":4768,
			"byteOffset":1145324,
			"target":34962
		},
		{
			"buffer":0,
			"byteLength":6372,
			"byteOffset":1150092,
			"target":34963
		},
		{
			"buffer":0,
			"byteLength":264720,
			"byteOffset":1156464,
			"target":34962
		},
		{
			"buffer":0,
			"byteLength":264720,
			"byteOffset":1421184,
			"target":34962
		},
		{
			"buffer":0,
			"byteLength":176480,
			"byteOffset":1685904,
			"target":34962
		},
		{
			"buffer":0,
			"byteLength":233664,
			"byteOffset":1862384,
			"target":34963
		},
		{
			"buffer":0,
			"byteLength":27384,
			"byteOffset":2096048,
			"target":34962
		},
		{
			"buffer":0,
			"byteLength":27384,
			"byteOffset":2123432,
			"target":34962
		},
		{
			"buffer":0,
			"byteLength":18256,
			"byteOffset":2150816,
			"target":34962
		},
		{
			"buffer":0,
			"byteLength":23424,
			"byteOffset":2169072,
			"target":34963
		},
		{
			"buffer":0,
			"byteLength":504,
			"byteOffset":2192496,
			"target":34962
		},
		{
			"buffer":0,
			"byteLength":504,
			"byteOffset":2193000,
			"target":34962
		},
		{
			"buffer":0,
			"byteLength":336,
			"byteOffset":2193504,
			"target":34962
		},
		{
			"buffer":0,
			"byteLength":240,
			"byteOffset":2193840,
			"target":34963
		},
		{
			"buffer":0,
			"byteLength":15096,
			"byteOffset":2194080,
			"target":34962
		},
		{
			"buffer":0,
			"byteLength":15096,
			"byteOffset":2209176,
			"target":34962
		},
		{
			"buffer":0,
			"byteLength":12960,
			"byteOffset":2224272,
			"target":34963
		},
		{
			"buffer":0,
			"byteLength":6252,
			"byteOffset":2237232,
			"target":34962
		},
		{
			"buffer":0,
			"byteLength":6252,
			"byteOffset":2243484,
			"target":34962
		},
		{
			"buffer":0,
			"byteLength":4168,
			"byteOffset":2249736,
			"target":34962
		},
		{
			"buffer":0,
			"byteLength":5472,
			"byteOffset":2253904,
			"target":34963
		}
	],
	"samplers":[
		{
			"magFilter":9729,
			"minFilter":9987
		}
	],
	"buffers":[
		{
			"byteLength":2259376,
			"uri":"professor.bin"
		}
	]
}
